# AST/ASF file generated using VICON BodyLanguage
# -----------------------------------------------
:version 1.10
:name VICON
:units
  mass 1.0
  length 0.45
  angle deg
:documentation
   .ast/.asf automatically generated from VICON data using
   VICON BodyBuilder and BodyLanguage model FoxedUp or BRILLIANT.MOD
:root
   order TX TY TZ RX RY RZ
   axis XYZ
   position 0 0 0  
   orientation 0 0 0 
:bonedata
  begin
     id 1 
     name lhipjoint
     direction 0.589753 -0.68606 0.426044 
     length 2.54082 
     axis 0 0 0  XYZ
  end
  begin
     id 2 
     name lfemur
     direction 0.34202 -0.939693 0  
     length 7.04539  
     axis 0 0 20  XYZ
    dof rx ry rz
    limits (-160.0 20.0)
           (-70.0 70.0)
           (-60.0 70.0)
  end
  begin
     id 3 
     name ltibia
     direction 0.34202 -0.939693 0   
     length 7.83772   
     axis 0 0 20   XYZ
    dof rx
    limits (-10.0 170.0)
  end
  begin
     id 4 
     name lfoot
     direction 0.0596604 -0.163915 0.984669   
     length 2.39542   
     axis -90 7.62852e-016 20   XYZ
    dof rx rz
    limits (-45.0 90.0)
           (-70.0 20.0)
  end
  begin
     id 5 
     name ltoes
     direction 1.53514e-011 -4.21954e-011 1   
     length 1.2047   
     axis -90 7.62852e-016 20   XYZ
    dof rx
    limits (-90.0 20.0)
  end
  begin
     id 6 
     name rhipjoint
     direction -0.580585 -0.69168 0.429534   
     length 2.52018  
     axis 0 0 0  XYZ 
  end
  begin
     id 7 
     name rfemur
     direction -0.34202 -0.939693 0   
     length 7.0101   
     axis 0 0 -20   XYZ
    dof rx ry rz
    limits (-160.0 20.0)
           (-70.0 70.0)
           (-70.0 60.0)
  end
  begin
     id 8 
     name rtibia
     direction -0.34202 -0.939693 0   
     length 7.70628   
     axis 0 0 -20   XYZ
    dof rx
    limits (-10.0 170.0)
 end
 begin
     id 9 
     name rfoot
     direction -0.0696237 -0.19129 0.979061   
     length 2.52466  
     axis -90 -7.62852e-016 -20   XYZ
    dof rx rz
    limits (-45.0 90.0)
           (-20.0 70.0)
  end
  begin
     id 10 
     name rtoes
     direction -1.53519e-011 -4.21793e-011 1   
     length 1.266   
     axis -90 -7.62852e-016 -20   XYZ
    dof rx
    limits (-90.0 20.0)
  end
  begin
     id 11 
     name lowerback
     direction 0.00381965 0.995707 -0.0924856   
     length 2.20825   
     axis 0 0 0   XYZ
    dof rx ry rz
    limits (-20.0 45.0)
           (-30.0 30.0)
           (-30.0 30.0)
  end
  begin
     id 12 
     name upperback
     direction -0.0139043 0.999634 -0.0231929   
     length 2.21517   
     axis 0 0 0   XYZ
    dof rx ry rz
    limits (-20.0 45.0)
           (-30.0 30.0)
           (-30.0 30.0)
  end
  begin
     id 13 
     name thorax
     direction -0.0143933 0.999691 0.0202892   
     length 2.22911   
     axis 0 0 0   XYZ
    dof rx ry rz
    limits (-20.0 45.0)
           (-30.0 30.0)
           (-30.0 30.0)
  end
  begin
     id 14 
     name lowerneck
     direction -0.0251153 0.981819 0.188153   
     length 1.61782   
     axis 0 0 0   XYZ
    dof rx ry rz
    limits (-20.0 45.0)
           (-30.0 30.0)
           (-30.0 30.0)
  end
  begin
     id 15 
     name upperneck
     direction 0.0563891 0.969357 -0.239095   
     length 1.64526   
     axis 0 0 0   XYZ
    dof rx ry rz
    limits (-20.0 45.0)
           (-30.0 30.0)
           (-30.0 30.0)
  end
  begin
     id 16
     name head
     direction 0.0208328 0.99459 -0.101773  
     length 1.67436  
     axis 0 0 0   XYZ
    dof rx ry rz
    limits (-20.0 45.0)
           (-30.0 30.0)
           (-30.0 30.0)
  end
  begin
     id 17 
     name lclavicle
     direction 0.917689 0.397224 0.00772059  
     length 3.31102  
     axis 0 0 0   XYZ
    dof ry rz
    limits (-20.0 10.0)
           (0.0 20.0)
  end
  begin
     id 18 
     name lhumerus
     direction 1 -4.4896e-011 2.32308e-027   
     length 5.25537   
     axis 180 -30 -90   XYZ
    dof rx ry rz
    limits (-60.0 90.0)
           (-90.0 90.0)
           (-90.0 90.0)
  end
  begin
     id 19
     name lradius
     direction 1 -4.49005e-011 -2.04271e-027   
     length 3.38855   
     axis 180 -30 -90   XYZ
    dof rx
    limits (-10.0 170.0)
  end
  begin
     id 20
     name lwrist
     direction 1 -4.48892e-011 2.56952e-028   
     length 1.69428   
     axis -5.12785e-016 90 90   XYZ
    dof ry
    limits (-180.0 0.0)
 end
  begin
     id 21 
     name lhand
     direction 1 -4.48966e-011 5.13905e-028   
     length 0.614516   
     axis -3.27915e-016 90 90   XYZ
    dof rx rz
    limits (-90.0 90.0)
           (-45.0 45.0)
  end
  begin
     id 22 
     name lfingers
     direction 1 -4.48979e-011 1.02781e-027   
     length 0.495439   
     axis -6.5583e-016 90 90   XYZ
    dof rx
    limits (0.0 90.0)
  end
  begin
     id 23
     name lthumb
     direction 0.707107 -6.35001e-011 0.707107   
     length 0.711354   
     axis -90 45 2.85299e-015   XYZ
    dof rx rz
    limits (-45.0 45.0)
           (-45.0 45.0)
  end
  begin
     id 24 
     name rclavicle
     direction -0.938556 0.342765 -0.0403177   
     length 3.27019  
     axis 0 0 0   XYZ 
    dof ry rz
    limits (-10.0 20.0)
           (-20.0 0.0)
  end
  begin
     id 25 
     name rhumerus
     direction -1 -4.48966e-011 2.52291e-027  
     length 5.38183   
     axis 180 30 90   XYZ
    dof rx ry rz
    limits (-90.0 60.0)
           (-90.0 90.0)
           (-90.0 90.0)
  end
  begin
     id 26 
     name rradius
     direction -1 -4.4896e-011 1.5797e-027   
     length 3.16988   
     axis 180 30 90   XYZ
    dof rx
    limits (-10.0 170.0)
  end
  begin
     id 27 
     name rwrist
     direction -1 -4.48947e-011 2.56952e-028   
     length 1.58494   
     axis -5.12785e-016 -90 -90   XYZ
    dof ry
    limits (-180.0 0.0)
  end
  begin
     id 28
     name rhand
     direction -1 -4.49098e-011 5.13905e-028   
     length 0.637679   
     axis -3.27915e-016 -90 -90   XYZ
    dof rx rz
    limits (-90.0 90.0)
           (-45.0 45.0)
  end
  begin
     id 29
     name rfingers
     direction -1 -4.49026e-011 1.02781e-027   
     length 0.514113   
     axis -6.5583e-016 -90 -90   XYZ
    dof rx
    limits (0.0 90.0)
  end
  begin
     id 30
     name rthumb
     direction -0.707107 -6.3491e-011 0.707107   
     length 0.738167   
     axis -90 -45 -2.85299e-015   XYZ
    dof rx rz
    limits (-45.0 45.0)
           (-45.0 45.0)
  end
:hierarchy
  begin
    root lhipjoint rhipjoint lowerback
    lhipjoint lfemur
    lfemur ltibia
    ltibia lfoot
    lfoot ltoes
    rhipjoint rfemur
    rfemur rtibia
    rtibia rfoot
    rfoot rtoes
    lowerback upperback
    upperback thorax
    thorax lowerneck lclavicle rclavicle
    lowerneck upperneck
    upperneck head
    lclavicle lhumerus
    lhumerus lradius
    lradius lwrist
    lwrist lhand lthumb
    lhand lfingers
    rclavicle rhumerus
    rhumerus rradius
    rradius rwrist
    rwrist rhand rthumb
    rhand rfingers
  end

#!OML:ASF H:\Swim\Project 1\Capture day 1\Session 1\swimmer.ASF
:FULLY-SPECIFIED
:DEGREES
3206
root 5.47294 11.6811 21.4957 90.9152 1.59569 -2.60495
lowerback -0.0749475 12.3037 2.61248
upperback -7.49962 16.7088 -6.62798
thorax -5.1326 8.26813 -8.73773
lowerneck -2.58842 -15.8124 -2.43524
upperneck -9.07026 -20.0281 22.8628
head 0.448362 -10.558 6.59189
rclavicle -1.27222e-013 0
rhumerus 393.309 -5.79085 383.845
rradius 35.6189
rwrist -57.0881
rhand -12.681 -5.39621
rfingers 7.12502
rthumb 13.4007 -394.945
lclavicle -1.27222e-013 0
lhumerus -10.2494 -36.3755 20.2041
lradius 136.152
lwrist 31.232
lhand -7.48581 -713.914
lfingers 7.12502
lthumb 18.4035 35.2356
rfemur -23.7903 21.8158 19.6711
rtibia 34.3181
rfoot -27.4962 -27.4125
rtoes 27.6326
lfemur -19.5414 3.74043 -18.9138
ltibia 40.0248
lfoot 7.97187 -2.26675
ltoes -0.395991
3207
root 5.46298 11.6878 21.5082 91.0355 1.74076 -2.43987
lowerback -0.16711 12.5791 2.65785
upperback -7.62384 17.0917 -6.77365
thorax -5.09962 8.46552 -8.88614
lowerneck -2.53981 -16.2298 -2.32051
upperneck -9.28666 -20.5506 22.8867
head 0.43039 -10.842 6.55448
rclavicle -1.36764e-013 -9.54166e-015
rhumerus 392.443 -5.54089 383.695
rradius 35.6494
rwrist -57.1317
rhand -12.5851 -5.44327
rfingers 7.12502
rthumb 13.4931 -394.986
lclavicle -1.36764e-013 -9.54166e-015
lhumerus -11.1609 -35.7199 20.3528
lradius 136.35
lwrist 31.2465
lhand -7.40029 -713.977
lfingers 7.12502
lthumb 18.4858 35.1643
rfemur -23.529 22.0625 19.7171
rtibia 34.152
rfoot -28.5326 -27.5354
rtoes 28.2352
lfemur -19.7677 3.51322 -18.7846
ltibia 40.2298
lfoot 8.67801 -2.6671
ltoes -0.561473
3208
root 5.45357 11.6942 21.5195 91.1229 1.87467 -2.28226
lowerback -0.235294 12.844 2.68507
upperback -7.73734 17.4593 -6.90891
thorax -5.07705 8.65539 -9.01874
lowerneck -2.46993 -16.6342 -2.16658
upperneck -9.49407 -21.0567 22.8559
head 0.397401 -11.1184 6.50094
rclavicle 0 3.33958e-014
rhumerus 391.574 -5.27781 383.519
rradius 35.6476
rwrist -56.8468
rhand -12.4044 -5.43221
rfingers 7.12502
rthumb 13.6673 -394.963
lclavicle 0 3.33958e-014
lhumerus -12.0357 -35.0487 20.4488
lradius 136.562
lwrist 31.4312
lhand -7.17751 -714.034
lfingers 7.12502
lthumb 18.7001 35.0869
rfemur -23.1612 22.3115 19.8103
rtibia 33.9767
rfoot -29.5911 -27.6082
rtoes 28.8568
lfemur -19.9751 3.21263 -18.6589
ltibia 40.3477
lfoot 9.40908 -3.08654
ltoes -0.679958
3209
root 5.44451 11.7002 21.5295 91.1826 1.99361 -2.1321
lowerback -0.278305 13.0956 2.69225
upperback -7.84538 17.8082 -7.03735
thorax -5.07175 8.83558 -9.1406
lowerneck -2.29546 -17.0204 -2.04943
upperneck -9.78803 -21.5168 22.9059
head 0.330014 -11.3852 6.49328
rclavicle -1.49486e-013 3.97569e-014
rhumerus 390.704 -4.97017 383.333
rradius 35.6104
rwrist -56.3201
rhand -12.1385 -5.34401
rfingers 7.12502
rthumb 13.9236 -394.858
lclavicle -1.49486e-013 3.97569e-014
lhumerus -12.8812 -34.3476 20.497
lradius 136.802
lwrist 31.8031
lhand -6.81046 -714.062
lfingers 7.12502
lthumb 19.0531 35.0248
rfemur -22.7018 22.5622 19.9444
rtibia 33.7991
rfoot -30.5773 -27.6411
rtoes 29.529
lfemur -20.1674 2.84077 -18.541
ltibia 40.3737
lfoot 10.1139 -3.50585
ltoes -0.764962
3210
root 5.43622 11.704 21.5411 91.2192 2.0976 -1.98694
lowerback -0.299831 13.3271 2.68621
upperback -7.94422 18.1286 -7.16205
thorax -5.07671 9.00112 -9.25734
lowerneck -2.09274 -17.3766 -1.87845
upperneck -10.065 -21.9379 22.8936
head 0.243345 -11.6329 6.46948
rclavicle 1.68569e-013 -1.90833e-014
rhumerus 389.837 -4.59842 383.164
rradius 35.5458
rwrist -55.6911
rhand -11.8029 -5.1958
rfingers 7.12502
rthumb 14.2469 -394.687
lclavicle 1.68569e-013 -1.90833e-014
lhumerus -13.6972 -33.5858 20.4799
lradius 137.075
lwrist 32.3033
lhand -6.24697 -714.041
lfingers 7.12502
lthumb 19.5949 34.9915
rfemur -22.2944 22.8067 20.1044
rtibia 33.6269
rfoot -30.047 -29.1645
rtoes 28.112
lfemur -20.3335 2.40425 -18.4336
ltibia 40.3002
lfoot 10.747 -3.9055
ltoes -0.807073
3211
root 5.42799 11.7073 21.551 91.2374 2.19239 -1.84414
lowerback -0.304763 13.5384 2.67413
upperback -8.03131 18.4208 -7.27972
thorax -5.0857 9.15214 -9.36758
lowerneck -1.87227 -17.7108 -1.68981
upperneck -10.3283 -22.3307 22.8546
head 0.147965 -11.8663 6.44196
rclavicle 3.81667e-014 -4.13472e-014
rhumerus 388.98 -4.14726 383.033
rradius 35.4573
rwrist -55.0879
rhand -11.4148 -5.02012
rfingers 7.12502
rthumb 14.6209 -394.485
lclavicle 3.81667e-014 -4.13472e-014
lhumerus -14.4693 -32.7462 20.3978
lradius 137.371
lwrist 32.8689
lhand -5.49314 -713.972
lfingers 7.12502
lthumb 20.3195 34.9846
rfemur -21.8426 23.0484 20.2982
rtibia 33.4729
rfoot -29.0806 -30.8062
rtoes 26.4586
lfemur -20.4956 1.91314 -18.3286
ltibia 40.1446
lfoot 11.265 -4.25386
ltoes -1.01247
3212
root 5.41969 11.7104 21.5587 91.2376 2.28135 -1.70057
lowerback -0.289978 13.7255 2.66644
upperback -8.10292 18.6793 -7.39141
thorax -5.09409 9.2855 -9.47781
lowerneck -1.67312 -18.0274 -1.48709
upperneck -10.553 -22.7074 22.7843
head 0.0587353 -12.0871 6.40353
rclavicle 3.81667e-014 1.59028e-014
rhumerus 388.146 -3.62719 382.926
rradius 35.3487
rwrist -54.5951
rhand -10.9878 -4.85195
rfingers 7.12502
rthumb 15.0323 -394.286
lclavicle 3.81667e-014 1.59028e-014
lhumerus -15.1763 -31.8283 20.2167
lradius 137.656
lwrist 33.3461
lhand -4.63412 -713.953
lfingers 7.12502
lthumb 21.1449 34.9136
rfemur -21.2666 19.9513 20.7671
rtibia 33.3483
rfoot -24.6403 -30.5741
rtoes 24.708
lfemur -20.6578 1.3798 -18.2239
ltibia 39.9198
lfoot 11.6133 -4.52653
ltoes -1.17241
3213
root 5.41127 11.7136 21.5643 91.2181 2.36535 -1.55581
lowerback -0.254326 13.891 2.66664
upperback -8.15645 18.9074 -7.49658
thorax -5.09841 9.40283 -9.58888
lowerneck -1.52622 -18.3377 -1.26093
upperneck -10.7114 -23.0911 22.6542
head -0.0137005 -12.3026 6.33881
rclavicle 1.27222e-013 1.145e-013
rhumerus 387.337 -3.04144 382.843
rradius 35.2243
rwrist -54.2578
rhand -10.5235 -4.72524
rfingers 7.12502
rthumb 15.4795 -394.126
lclavicle 1.27222e-013 1.145e-013
lhumerus -15.8013 -30.8187 19.9353
lradius 137.919
lwrist 33.712
lhand -3.65498 -714.002
lfingers 7.12502
lthumb 22.0852 34.757
rfemur -20.703 17.0218 21.1964
rtibia 33.2679
rfoot -20.2234 -30.0601
rtoes 22.7792
lfemur -20.8249 0.820756 -18.1211
ltibia 39.6542
lfoot 11.7449 -4.71168
ltoes -1.21831
3214
root 5.40259 11.7169 21.5682 91.1863 2.44462 -1.40505
lowerback -0.205364 14.0354 2.6701
upperback -8.19402 19.1062 -7.59419
thorax -5.09847 9.50498 -9.69611
lowerneck -1.42484 -18.65 -1.03026
upperneck -10.8137 -23.491 22.4829
head -0.0678628 -12.5186 6.25513
rclavicle -8.90555e-014 1.59028e-014
rhumerus 386.554 -2.377 382.794
rradius 35.0962
rwrist -54.0981
rhand -10.0439 -4.67666
rfingers 7.12502
rthumb 15.9413 -394.041
lclavicle -8.90555e-014 1.59028e-014
lhumerus -16.341 -29.7175 19.5644
lradius 138.146
lwrist 33.9549
lhand -2.57326 -714.156
lfingers 7.12502
lthumb 23.1235 34.4759
rfemur -20.1654 14.2806 21.5875
rtibia 33.2424
rfoot -15.9735 -29.2496
rtoes 20.7145
lfemur -21.0044 0.252426 -18.022
ltibia 39.3632
lfoot 11.6064 -4.80901
ltoes -1.19718
3215
root 5.3935 11.7204 21.5702 91.1431 2.52321 -1.24782
lowerback -0.147115 14.1595 2.67879
upperback -8.21609 19.2766 -7.68138
thorax -5.09293 9.5925 -9.7965
lowerneck -1.30235 -18.9557 -0.832255
upperneck -10.9409 -23.8776 22.3413
head -0.127426 -12.7308 6.1891
rclavicle 2.22639e-014 3.18055e-015
rhumerus 385.803 -1.61982 382.789
rradius 34.9719
rwrist -54.0922
rhand -9.5598 -4.71579
rfingers 7.12502
rthumb 16.4075 -394.042
lclavicle 2.22639e-014 3.18055e-015
lhumerus -16.7994 -28.5312 19.1181
lradius 138.322
lwrist 34.0632
lhand -1.45694 -714.475
lfingers 7.12502
lthumb 24.1942 34.0194
rfemur -19.6569 11.7363 21.9506
rtibia 33.28
rfoot -12.0684 -28.1585
rtoes 18.619
lfemur -21.1925 -0.308154 -17.9249
ltibia 39.0625
lfoot 11.1449 -4.7997
ltoes -1.14965
3216
root 5.3839 11.7243 21.5702 91.0858 2.58734 -1.08097
lowerback -0.0803525 14.2627 2.6772
upperback -8.21924 19.4168 -7.75934
thorax -5.08257 9.6651 -9.88377
lowerneck -1.16252 -19.2521 -0.653965
upperneck -11.0809 -24.2496 22.2081
head -0.192611 -12.9374 6.13273
rclavicle -6.99722e-014 1.43125e-014
rhumerus 385.085 -0.754929 382.838
rradius 34.8539
rwrist -54.1778
rhand -9.07402 -4.83162
rfingers 7.12502
rthumb 16.8752 -394.118
lclavicle -6.99722e-014 1.43125e-014
lhumerus -17.1753 -27.234 18.6062
lradius 138.467
lwrist 34.18
lhand -0.234976 -714.863
lfingers 7.12502
lthumb 25.3653 33.4694
rfemur -19.176 9.38503 22.2772
rtibia 33.3898
rfoot -8.6539 -26.8542
rtoes 16.3762
lfemur -21.3779 -0.855919 -17.8475
ltibia 38.7629
lfoot 10.3469 -4.6441
ltoes -1.22706
